<svg version="1.2" xmlns="http://www.w3.org/2000/svg" viewBox="0 0 4000 4000" width="4000" height="4000">
	<title>New Project</title>
	<style>
		.s0 { fill: #ffffff } 
	</style>
	<path class="s0" d="m2557.2 3229.4c-9.9 12.3-1.1 30.6 14.7 30.6h298.3c45.8 0 89.1-20.8 117.7-56.6l479.9-599.9c45.2-56.5 43.9-137.1-3.1-192.1l-985.7-1154.1c-5.8-6.8-16.6 0.4-12.4 8.4l609.8 1170.8c27.6 52.9 21.3 117.2-16 163.8z"/>
	<path class="s0" d="m1670.2 3260h660.4c5.7 0 11.1-2.6 14.7-7.1l582-727.6c9.3-11.6 10.9-27.7 4-40.9l-897.5-1723.1c-14.1-27.1-52.7-27.1-66.8 0l-897.5 1723.1c-6.9 13.2-5.3 29.3 4 41l582 727.5c3.6 4.5 9 7.1 14.7 7.1z"/>
	<path class="s0" d="m1534.3 1265.7c4.1-7.9-6.6-15.2-12.4-8.3l-985.8 1154c-46.9 55-48.3 135.6-3.1 192.1l479.9 599.9c28.6 35.8 71.9 56.6 117.7 56.6h298.3c15.8 0 24.6-18.3 14.7-30.6l-503.1-629c-37.4-46.7-43.6-110.9-16-163.9z"/>
	<g id="Layer 1">
	</g>
</svg>